<svg width="429" height="355" viewBox="0 0 429 355" fill="none" xmlns="http://www.w3.org/2000/svg">
<path opacity="0.5" d="M184.154 130.789C135.612 86.6268 327.159 25.1954 429 0V355C392.964 352.452 307.218 343.874 252.523 329.946C184.154 312.536 179.881 278.565 232.012 242.895C284.143 207.225 244.831 185.993 184.154 130.789Z" fill="#237AB5"/>
<path opacity="0.5" fill-rule="evenodd" clip-rule="evenodd" d="M0 0H429C327.159 25.1954 135.612 86.6268 184.154 130.789C192.607 138.479 200.644 145.51 208.078 152.012L208.08 152.014C254.01 192.189 276.881 212.194 232.012 242.895C179.881 278.565 184.154 312.536 252.523 329.946C307.218 343.874 392.964 352.452 429 355H0V337.572C22.5888 324.677 68.2022 292.877 76.6071 264.767C81.5847 248.12 94.5727 235.552 107.379 223.16C121.947 209.063 136.28 195.194 138.318 175.805C141.365 146.832 47.9314 130.251 0 125.478V0Z" fill="#182240"/>
<path opacity="0.5" d="M139.211 175.105C142.277 145.935 47.681 129.315 0 124.651V337.49C22.2795 324.912 68.9671 292.633 77.4816 264.141C88.1246 228.526 135.38 211.567 139.211 175.105Z" fill="#237AB5"/>
</svg>
