<?xml version="1.0" encoding="UTF-8"?>
<svg id="Calque_2" xmlns="http://www.w3.org/2000/svg" viewBox="0 0 311.83 236.08">
  <defs>
    <style>
      .diplome-1 {
        fill: none;
        stroke: #f3c14d;
        stroke-miterlimit: 10;
      }

      .diplome-2 {
        fill: #f3c14d;
      }

      .diplome-3 {
        fill: #eddeeb;
      }

      .diplome-4 {
        fill: #237ab5;
      }

      .diplome-5 {
        fill: #182240;
      }

      .diplome-6 {
        fill: #c12934;
      }
    </style>
  </defs>
  <g id="armoir">
    <g>
      <rect class="diplome-2" x="13.55" y="13.57" width="284.79" height="209.98"/>
      <rect class="diplome-4" x="44.35" y="40.61" width="219.41" height="156.54"/>
      <rect class="diplome-1" x="49.38" y="46.26" width="209.35" height="145.85"/>
      <polygon class="diplome-6" points="298.34 223.55 302.9 227.31 302.9 8.27 298.34 13.57 298.34 223.55"/>
      <polygon class="diplome-4" points="13.55 223.55 4.75 229.21 305.14 229.21 298.34 223.55 13.55 223.55"/>
      <polygon class="diplome-6" points="4.75 4.73 13.55 13.57 13.55 223.55 4.75 230.36 4.75 4.73"/>
      <polygon class="diplome-3" points="155.96 137.56 157.4 135.54 158.58 137.72 160.26 135.9 161.16 138.21 163.05 136.62 163.65 139.02 165.74 137.68 166.03 140.14 168.26 139.07 168.24 141.55 170.6 140.76 170.27 143.22 172.7 142.74 172.06 145.13 174.54 144.96 173.6 147.26 176.08 147.39 174.87 149.56 177.31 150 175.83 152 178.2 152.74 176.49 154.54 178.74 155.58 176.82 157.14 178.92 158.45 176.82 159.77 178.74 161.33 176.49 162.37 178.2 164.16 175.83 164.91 177.31 166.91 174.87 167.35 176.08 169.51 173.6 169.65 174.54 171.95 172.06 171.77 172.7 174.17 170.27 173.69 170.6 176.15 168.24 175.36 168.26 177.84 166.03 176.77 165.74 179.23 163.65 177.88 163.05 180.29 161.16 178.69 160.26 181.01 158.58 179.19 157.4 181.37 155.96 179.35 154.52 181.37 153.34 179.19 151.66 181.01 150.76 178.69 148.86 180.29 148.27 177.88 146.18 179.23 145.89 176.77 143.66 177.84 143.68 175.36 141.32 176.15 141.65 173.69 139.22 174.17 139.86 171.77 137.38 171.95 138.31 169.65 135.84 169.51 137.05 167.35 134.61 166.91 136.08 164.91 133.72 164.16 135.43 162.37 133.18 161.33 135.1 159.77 133 158.45 135.1 157.14 133.18 155.58 135.43 154.54 133.72 152.74 136.08 152 134.61 150 137.05 149.56 135.84 147.39 138.31 147.26 137.38 144.96 139.86 145.13 139.22 142.74 141.65 143.22 141.32 140.76 143.68 141.55 143.66 139.07 145.89 140.14 146.18 137.68 148.27 139.02 148.86 136.62 150.76 138.21 151.66 135.9 153.34 137.72 154.52 135.54 155.96 137.56"/>
      <polygon class="diplome-3" points="100.62 223.55 96.22 223.55 63.53 13.57 67.93 13.57 100.62 223.55"/>
      <polygon class="diplome-3" points="125.14 223.55 106.28 223.55 72.33 13.57 91.19 13.57 125.14 223.55"/>
      <polygon class="diplome-5" points="6.09 6.03 13.55 13.57 298.34 13.57 305.75 6.03 6.09 6.03"/>
      <path class="diplome-2" d="M302.82,9l-.26,218.08H9V9h293.82M311.83,0H0v236.08h311.55l.28-236.08h0Z"/>
    </g>
  </g>
</svg>