<?xml version="1.0" encoding="UTF-8"?>
<svg id="Calque_2" xmlns="http://www.w3.org/2000/svg" viewBox="0 0 287.6 76.42">
  <defs>
    <style>
      .formation-1 {
        fill: #333;
      }

      .formation-2 {
        fill: #f3c14d;
      }

      .formation-3 {
        fill: #eddeeb;
      }

      .formation-4 {
        fill: #237ab5;
      }

      .formation-5 {
        fill: #182240;
      }

      .formation-6 {
        fill: #c12934;
      }
    </style>
  </defs>
  <g id="armoir">
    <g>
      <path class="formation-2" d="M285.74,75.87c1.23-1.25,3.46-24.06,0-35.03H1.48s-3.34,20.42,0,35.03c0,0,283.03,1.25,284.26,0Z"/>
      <path class="formation-4" d="M.37,68.68s.41,5.09,1.15,7.31c3.71,0,284.22.43,284.22.43,0,0,1-3.22,1.32-7.75-8.99-.36-286.69.01-286.69.01Z"/>
      <path class="formation-6" d="M285.74,40.84c4.11,0-15.47-5.54-15.47-5.54l-247.99-1.15L1.48,40.84"/>
      <path class="formation-3" d="M284.01,42.69s.96,2.81.74,5.94c-3.19.16-280.66-1.48-280.66-1.48,0,0-.74-2.23,0-4.45h279.92Z"/>
      <path class="formation-3" d="M267.3,7.83l-43.4-3.01s-5.13,19.95.06,29.53c13.41-.2,43.35,0,43.35,0,0,0-2.24-21.25,0-26.52Z"/>
      <path class="formation-2" d="M271.75,8.17v-4.08L223.49,0,17.65,4.08s-7.59,17.91,0,31.79c12.05,1.26,207.32,2.74,207.32,2.74h46.78v-4.26h-47.46s-5.94-9.48-.06-29.9c13.31,1.86,47.52,3.71,47.52,3.71Z"/>
      <path class="formation-1" d="M266.62,10.76s-23.01-6.81-43.5-2.22c.74-2.23,1.11-4.08,1.11-4.08l43.03,3.46c-.12.34-.23.71-.34,1.11-.02.08-.04.17-.06.25-.11.57-.19,1.04-.25,1.47Z"/>
      <path class="formation-3" d="M217.92,3.34s-1.26,2.81-1.48,5.94c-3.19.16-196.76,1.48-196.76,1.48,0,0,0-2.23.74-4.45,1.48,0,197.5-2.97,197.5-2.97Z"/>
      <path class="formation-5" d="M150.76,37.28s18.56.13,56.43,22.4c24.5-8.91,33.38-16.62,60.11-21.07-50.49-1.48-116.54-1.33-116.54-1.33Z"/>
      <path class="formation-4" d="M271.75,34.35v4.26s-262.47-.37-254.31-2.6c8.91-1.48,204.42-19.54,204.42-19.54,0,0-1.61,11.02,2.42,17.88h47.46Z"/>
    </g>
  </g>
</svg>