<?xml version="1.0" encoding="UTF-8"?>
<svg id="Calque_2" xmlns="http://www.w3.org/2000/svg" viewBox="0 0 283.62 180.79">
  <defs>
    <style>
      .hobbys-1 {
        stroke: #eddeeb;
      }

      .hobbys-1, .hobbys-2 {
        stroke-linecap: round;
      }

      .hobbys-1, .hobbys-2, .hobbys-3 {
        fill: none;
        stroke-miterlimit: 10;
      }

      .hobbys-2 {
        stroke: #c12934;
      }

      .hobbys-3 {
        stroke: #237ab5;
        stroke-width: 2px;
      }

      .hobbys-4 {
        fill: #f3c14d;
      }

      .hobbys-5 {
        fill: #eddeeb;
      }

      .hobbys-6 {
        fill: #237ab5;
      }

      .hobbys-7 {
        fill: #182240;
      }

      .hobbys-8 {
        fill: #c12934;
      }
    </style>
  </defs>
  <g id="armoir">
    <g>
      <path class="hobbys-7" d="M0,27.27l6.35,139.12s-.49,8.3,12.69,10.25c13.18,1.95,34.1,2.2,34.1,2.2,0,0,15.15-4.86,25.43-5.72s191.38-4.28,191.38-4.28c0,0,7.81-.03,8.05-8.8.24-8.77,5.61-131.3,5.61-131.3L0,27.27Z"/>
      <path class="hobbys-4" d="M45.66,8.25s-1.24-4.9,4.13-5.39,28.78,0,28.78,0c0,0,5.32.99,5.24,5.85-5.45.47-38.15-.46-38.15-.46Z"/>
      <path class="hobbys-4" d="M88.26,8.84s-2.97-2.51.03-6.2c5.44.22,37.02,0,37.02,0,0,0,3.57,2.17.15,6.56-4.39,0-37.2-.37-37.2-.37Z"/>
      <path class="hobbys-6" d="M0,27.27l283.62,1.46V7.1s-2.44-1.31-7.81-1.31h-146.39l-1.52,2.06-124.97-.11s-2.93-1.58-2.93,3.85v15.68Z"/>
      <polygon class="hobbys-4" points="197.53 18 201.85 15.94 205.93 18.45 210.44 16.84 214.24 19.76 218.89 18.64 222.36 21.94 227.11 21.31 230.21 24.95 235 24.82 237.71 28.77 242.48 29.14 244.76 33.35 249.47 34.22 251.3 38.65 255.89 40 257.25 44.59 261.67 46.42 262.54 51.13 266.75 53.41 267.12 58.18 271.07 60.89 270.94 65.68 274.59 68.78 273.95 73.53 277.26 77 276.13 81.66 279.05 85.45 277.45 89.96 279.96 94.04 277.89 98.36 279.96 102.68 277.45 106.76 279.05 111.28 276.13 115.07 277.26 119.73 273.95 123.2 274.59 127.95 270.94 131.05 271.07 135.84 267.12 138.54 266.75 143.32 262.54 145.6 261.67 150.31 257.25 152.14 255.89 156.73 251.3 158.08 249.47 162.51 244.76 163.38 242.48 167.59 237.71 167.96 235 171.91 230.21 171.78 227.11 175.42 222.36 174.79 218.89 178.09 214.24 176.97 210.44 179.89 205.93 178.28 201.85 180.79 197.53 178.72 193.21 180.79 189.13 178.28 184.62 179.89 180.82 176.97 176.16 178.09 172.69 174.79 167.95 175.42 164.84 171.78 160.05 171.91 157.35 167.96 152.57 167.59 150.29 163.38 145.58 162.51 143.76 158.08 139.16 156.73 137.81 152.14 133.38 150.31 132.51 145.6 128.3 143.32 127.93 138.54 123.98 135.84 124.12 131.05 120.47 127.95 121.1 123.2 117.8 119.73 118.92 115.07 116 111.28 117.61 106.76 115.1 102.68 117.17 98.36 115.1 94.04 117.61 89.96 116 85.45 118.92 81.66 117.8 77 121.1 73.53 120.47 68.78 124.12 65.68 123.98 60.89 127.93 58.18 128.3 53.41 132.51 51.13 133.38 46.42 137.81 44.59 139.16 40 143.76 38.65 145.58 34.22 150.29 33.35 152.57 29.14 157.35 28.77 160.05 24.82 164.84 24.95 167.95 21.31 172.69 21.94 176.16 18.64 180.82 19.76 184.62 16.84 189.13 18.45 193.21 15.94 197.53 18"/>
      <circle class="hobbys-3" cx="197.7" cy="98.54" r="62.73"/>
      <circle class="hobbys-3" cx="197.7" cy="98.54" r="54.43"/>
      <circle class="hobbys-3" cx="197.7" cy="98.54" r="52.48"/>
      <path class="hobbys-6" d="M225.28,71.94l-55.65,1.46s-6.83-.49-4.88,7.81c1.95,8.3,3.2,29.83-.35,39.81-2.09,6.08,2.3,7.54,7.67,7.54s54.67-.98,54.67-.98c0,0,7.32-.98,4.88-7.32-2.44-6.35-1.46-32.71,1.46-41.49,1.46-4.88-3.42-6.83-7.81-6.83Z"/>
      <polygon class="hobbys-5" points="197.7 98.54 177.64 20.76 162.48 26.36 197.7 98.54"/>
      <polygon class="hobbys-5" points="222.36 174.79 197.7 98.54 232.99 171.37 222.36 174.79"/>
      <path class="hobbys-2" d="M167.13,98.58s51.31,20.7,54.24,20.21c2.93-.49,8.64-5.37,8.64-5.37"/>
      <path class="hobbys-2" d="M166.39,114.32s55.96,10.33,58.4,9.85c2.44-.49,5.98-5.36,5.98-5.36"/>
      <path class="hobbys-1" d="M166.28,87.36s3.84-3.22,6.77-3.7,50.24,34.44,50.24,34.44"/>
      <path class="hobbys-1" d="M165.93,84.98s5.65-4.74,8.09-4.26c2.44.49,55.68,22.87,55.68,22.87"/>
      <path class="hobbys-1" d="M165.16,80.64s3.99-6.27,7.4-5.29c3.42.98,58.26,12.4,58.26,12.4"/>
      <circle class="hobbys-5" cx="133.51" cy="28.49" r="5.61"/>
      <path class="hobbys-6" d="M0,51.68h76.7s6.94.33,7.1,7.98,0,100.38,0,100.38c0,0,2.11,6.85-6.19,6.85s-18.06-.49-20.99,2.44-3.42,2.44-10.25,2.44-36.12.98-40.03-5.37C6.35,157.61,0,51.68,0,51.68Z"/>
      <polygon class="hobbys-8" points="45.66 51.68 54.85 170.87 60.62 51.68 45.66 51.68"/>
      <path class="hobbys-8" d="M81.34,166.22s4.09,1.64,4.57-3.24c.49-4.88,0-105.39,0-105.39,0,0,1.9-5.9-7.35-5.9l2.77,114.54Z"/>
      <path class="hobbys-5" d="M36.14,27.44c-1.5,0-2.72,1.2-2.74,2.7l-.07,5.66s-.13,3.66,4.75,3.66h37.35c.86,0,1.7-.39,2.19-1.1.38-.55.75-1.37.94-2.56.51-3.17.32-8.14-2.79-8.17-5.74-.09-31.12-.19-39.64-.2Z"/>
      <rect class="hobbys-5" x="54.64" width="10.15" height="5.93"/>
      <circle class="hobbys-3" cx="197.7" cy="98.54" r="80.3"/>
    </g>
  </g>
</svg>