<?xml version="1.0" encoding="UTF-8"?>
<svg id="Calque_2" xmlns="http://www.w3.org/2000/svg" viewBox="0 0 231.32 302.19">
  <defs>
    <style>
      .infos-1 {
        fill: #999;
        stroke: #666;
        stroke-miterlimit: 10;
      }

      .infos-2 {
        fill: #666;
      }

      .infos-3 {
        fill: #f3c14d;
      }

      .infos-4 {
        fill: #eddeeb;
      }

      .infos-5 {
        fill: #237ab5;
      }

      .infos-6 {
        fill: #182240;
      }

      .infos-7 {
        fill: #c12934;
      }
    </style>
  </defs>
  <g id="armoir">
    <g>
      <rect class="infos-4" width="231.32" height="302.19"/>
      <polygon class="infos-3" points="226.56 297.82 5.62 297.82 5.75 127.68 227.25 111.77 226.56 297.82"/>
      <path class="infos-1" d="M52.24,259.62s-6.5-1.66-4.29-9.93c-7.17,3.59-22.89-4.41-11.59-12.41,11.31-8,20.69-9.93,20.69-9.93,0,0,14.9-2.76,11.59,7.17,8.28,2.48,7.78.81,14.37,5.51-7.47,8.56-22,19.59-22,19.59h-8.77Z"/>
      <path class="infos-5" d="M44.81,262.43s-5.41-2.26-4.58-7.22c-4.41,1.93-14.63-5.24-10.21-15.58-8.27,3.72-11.58-2.65-6.48-7.6.31-.3.67-.61,1.08-.92,6.39-4.9,24.35-11.48,28.57-11.48,1.1,0,5.63-.97,6.12,4.9,6.01-2.69,14.08,1.69,13.22,7.5,6.03-3.3,14.11,4.57,14.11,4.57l-5.35,15.72-20.28,14.76-16.2-4.64Z"/>
      <path class="infos-5" d="M227.06,168.16l-.5,44.13-102.68,16.44-13.49-1.79-9.96-3.17,4.04-2.46-13.97-2.23s.09-1.38,13.97-3.03c-8.73-.83-10.66-1.38-10.66-1.38,0,0,9-4.69,19.39-6.76-8.64-.97-22.7-3.5-22.7-3.5l13.97-4.08s-12.3-1.1-21.41,0c-9.11,1.1-22.54,1.83-22.54,1.83,0,0,12.58-7.63,21.69-8.45l13.52-15.49,3.03,9.43,2.76-6.07,1.1,1.93,1.84-6.14,21.06-4.9,23.72-24.55-3.31,8,2.48-1.93-5.13,11.83s5.13-7.69,13.4-8.24c8.28-.55,11.72-6.62,11.72-6.62l-21.1,27.58,4.97-2.48s-5.58,6.9-5,9.79l.58,2.9s-11.66,1.7-14.11,6.09c8.31-1.95,17.14-.02,17.14-.02l9.62-6.48,10.93,2s16.41-6.29,16.27-10.14l-.14-3.85.14-8.54,6.21-5.53,4.34-15.6.92,21.13,6.87-8.56,1.93-20.96,9.1-12.14-4.69,17.65,6.34-7.17-4.14,12.96-9.1,13.24-6.32,18.5,27.85-13.14Z"/>
      <path class="infos-7" d="M226.56,212.29l-21.24-4.38-3.46,4.38-3.38-4.38-17.16-3.31v-10.9h1.39l.27-3.72-5.24-4.14-5.79,1.93v13.82l-14.59-2.52v3.93l-2.24-1.71v8.47l-28.41,16.63h-10.76v-4.52l-4.14-.17-1.1,12.14s-2.21-.55-11.03,2.76c-7.72-2.21-13.03,0-13.03,0l-24.21,22.07s-34.2,1.93-41.1,11.03c-6.34,6.07-15.7,6.52-15.7,6.52l-.02,21.61h220.94v-85.54Z"/>
      <polygon class="infos-3" points="176.5 206.94 181.32 204.59 181.32 193.69 176.5 194.82 176.5 206.94"/>
      <polygon class="infos-3" points="177.6 190.66 176.5 194.82 181.32 193.69 181.32 190.66 177.6 190.66"/>
      <polygon class="infos-3" points="195.67 213.14 201.87 212.29 198.49 207.9 195.67 213.14"/>
      <path class="infos-6" d="M161.64,206.8v5.24h4.68s-5.27,18.07-9.96,20.55c-4.69,2.48-6.95,3.31-6.95,3.31l6.39-9.1-8.28,4.69,9.39-13.26-16.01,11.61v6.07l-7.17,6.34-9.96-1.52,3.07-8.96,3.64-7.24,31.15-17.72Z"/>
      <polygon class="infos-6" points="201.87 214.2 201.87 212.29 188.22 218.48 183.39 228.45 185.53 241.83 190.6 239.23 200.74 262.43 201.87 258.28 193.46 227.21 188.22 225 201.87 214.2"/>
      <polygon class="infos-6" points="172.57 216.04 168.62 258.57 135.95 267.07 150.59 253.15 152.57 239.23 172.57 216.04"/>
      <path class="infos-4" d="M72.93,196.29s-20.56-1.22-20.84,7.61c-.28,8.83,13.06,1.9,22.44,0,6.8-1.38,12.59-1.1,14.25,3.86,1.41,4.22-10.48,4.41-12.27,8.28-1.79,3.86,4,1.93,10.9,3.86,6.9,1.93,13.79,9.65,12.27,16.69s-11.34-.36-11.34-.36c0,0-.13-8.43-10.14-11.71-5.69-1.86-15.34-3.24-11.76-8.48,2.48-3.59,4.97-3.86,9.55-4.6,6.97-1.12,3.69-5.88-3.48-3.13-5.1,1.96-19.03,7.72-25.3-.41-4.07-5.28-2.11-9.41,7.04-11.67,9.15-2.26,25.5-1.41,25.5-1.41l-6.82,1.47Z"/>
      <polygon class="infos-6" points="110.87 232.02 110.85 245.55 94.82 267.07 97.07 253.15 82.16 272.59 89.06 250.79 61.01 260.86 86.65 236.59 99.68 236.59 110.87 232.02"/>
      <polygon class="infos-3" points="203.94 213.14 207.53 218.11 211.16 218.11 203.94 223.27 197.32 235.48 208.91 250.38 201.74 246.52 202.56 260.86 193.46 227.21 188.22 225 190.98 219.76 203.94 213.14"/>
      <path class="infos-5" d="M227.06,112.4s-8.91,5.16-12.22,11.51c-3.31,6.34-9.38,11.31-9.38,11.31l3.17-9.1-6.75,5.79s-2.76,4.98-6.21,9.39c-3.45,4.4.41,1.37-4.83,0s0-4.5,0-4.5c0,0-3.86,2.48-7.45,1.97s7.17-6.3,7.17-6.3c0,0,14.62-9.1,16.83-13.52,2.21-4.41,19.67-6.54,19.67-6.54Z"/>
      <path class="infos-5" d="M173.69,136.79s-8.79,6.91-4.78,6.81,7.14,1.01-1.05,4.18c-8.19,3.17-8.7,0-8.7,0l14.53-10.99Z"/>
      <path class="infos-4" d="M4.51,5.23v120.89s3.42,7.28,10.88,10.67c7.46,3.4,13.16,7.07,18.31,6.2,5.15-.87,9.86,0,9.86,0l1.91,3.27s16.83-2.21,20.69-7.45c3.03,4.69,8.95,4.18,8.95,4.18l5.39-3.35,8,.28,12.41-6.07,11.95,12.41,7.61-7.77,2.24,1.15,4.8-3.6,2.92-2.19,3.28,2.95h6.48l5.41-3.78,4.69,4.97,6.34,3.59,8.96.72,10.08-7.47,6.9,1.97,44.69-25.02-1.52-107.72L4.51,5.23Z"/>
      <path class="infos-5" d="M124.11,142.98v3.27l-2.82,2.93,4.51,1.76,5.46-6.07-1.79,6.07h5.07l5.07-4.69-3.66,6.31,6.62,2.77s-7.72,3.88-12.96,1.13c-5.24-2.76-12.9-10.21-12.9-10.21l4.59-7.77,2.24,1.15,4.8-3.6-.84,6.95h-3.38Z"/>
      <path class="infos-5" d="M121.3,156.22s-21.21,20.64-33.34,23.68c1.38-4.69,1.93-5.79,1.93-5.79l-16.48,3.31-3.11-6.07,2.76-1.66-2.76-1.63,1.93-6.37,3.31,1.38s-.09-6.83,11.95-13.9c-9.47,11.69-7.26,16.65-7.26,16.65l13.52-10.48,4.14,6.34,9.38-1.38,1.1,2.48,12.93-6.58Z"/>
      <polygon class="infos-2" points="110.87 175.98 126.65 157.45 115.95 174.8 110.87 175.98"/>
      <polygon class="infos-5" points="58.16 159.77 70.3 152.28 79.75 140.62 58.16 149.18 50.71 152.6 58.16 159.77"/>
      <path class="infos-3" d="M173.74,216.04v8.64h2.49l-2.49,19.72,4.18-2.57-4.18,11.02,14.48,9.58s-19.45-5.57-23.58-3.36,3.59-11.03,3.59-11.03l-8.28,2.76s-3.03-3.31,2.76-13.79c5.79-10.48,11.03-20.96,11.03-20.96Z"/>
      <polygon class="infos-3" points="113.69 239.23 107.77 262.43 105.88 254.93 96.23 267.07 104.96 248.06 113.69 239.23"/>
      <path class="infos-5" d="M62.98,164.54l-1.97,12.88,9.29,13.24v-4.83s2.48,7.03,12.41,7.86c3.31,1.1-21.52,1.1-29.24-5.79-4.14-3.31-6.72,1.66-12.46-2.07-5.74-3.72-.46-6.21-9.86-5.93-9.4.28-9.39.15-14.09-3.93s-5.21-13.87-11.34-11.44c-.06-9.15-.38-38.43-.38-38.43,0,0,13.56,16.91,29.19,16.87,15.63-.04,9.86,0,9.86,0l.27,8.19,1.42-1.99,4.63,12.96,1.56,4.57,1.97-6.95,2.25,6.95s.41,2.26,3.38,0,3.1-2.17,3.1-2.17Z"/>
      <polygon class="infos-5" points="31.13 208.31 23.13 202.25 18.44 205.83 17.89 209.69 16.69 209.69 16.69 215.29 24.67 224.52 26.44 231.21 46.3 221.83 46.36 214.82 45.19 214.44 44.81 203.93 43.17 212.73 41.89 213.83 41.61 210.52 39.96 211.07 39.68 213.56 38.85 214.38 38.66 194.24 37.35 194.24 36.65 174.39 34.44 192.87 33.06 192.59 31.13 208.31"/>
      <path class="infos-7" d="M31.53,217.54c-.95-.4-12.86-10.75-12.86-10.75l-.22-.97,4.69-3.59,8,6.07.4,9.23Z"/>
      <polygon class="infos-4" points="26.44 231.21 26.44 212.1 28.1 220.73 28.9 219.56 28.9 230.5 26.44 231.21"/>
      <path class="infos-4" d="M30.87,228.73v-8.46s.26,2.94,2.47,2.39,3.86-6.07,3.86-6.07c0,0,.83,4.67,2.48,3.3,1.66-1.37,1.7-2.35,1.7-2.35v6.61l-10.52,4.57Z"/>
      <polygon class="infos-4" points="44.06 222.89 44.28 206.8 45.19 214.44 46.36 214.82 46.3 221.83 44.06 222.89"/>
      <polygon class="infos-4" points="39.58 220.27 38.56 194.38 37.23 194.38 36.52 175.36 35.97 192.89 34.85 193.84 34.88 221.67 39.58 220.27"/>
      <ellipse class="infos-5" cx="37.34" cy="211.62" rx=".69" ry="1.1"/>
      <rect class="infos-7" x="33.34" y="197.56" width=".55" height="6.9"/>
      <rect class="infos-5" x="36.09" y="198.11" width="1.1" height="6.34"/>
      <rect class="infos-7" x="34.16" y="197.56" width=".28" height="6.9"/>
      <rect class="infos-2" x="38.03" y="197.56" width="0" height="6.9"/>
      <rect class="infos-5" x="26.99" y="223.76" width="1.1" height="6.07"/>
      <rect class="infos-5" x="32.51" y="223.76" width=".83" height="3.31"/>
      <rect class="infos-5" x="36.09" y="221.28" width="1.93" height="4.14"/>
      <rect class="infos-5" x="40.23" y="220.73" width=".55" height="3.03"/>
      <rect class="infos-5" x="44.92" y="216.59" width=".28" height="4.69"/>
      <rect class="infos-5" x="39.13" y="220.73" width=".55" height="3.03"/>
      <rect class="infos-5" x="33.89" y="222.66" width=".83" height="3.59"/>
      <path class="infos-3" d="M106.02,59.77s39.72,12.41,42.76-9.1c2.48-17.6-12.96-16-19.03-16.27,3.86-17.1-21.24-16.27-24.55-16-11.21.93-14.34,7.17-14.34,7.17,0,0-6.07-12.41-25.93-11.03-14.85,1.03-14.07,24.27-51.31,14.34,11.03,4.14,92.41,30.89,92.41,30.89Z"/>
      <path class="infos-3" d="M181.81,98.18s17.58-3.77,16.66-15.57c-.54-6.85-10.27-13.73-15.3-1.62-.41-9.17-9.63-9.47-14.91-6.28-8.88,5.36-6.51,14.48-6.51,14.48,0,0-4.32-10.64-12.88-3.98-6.4,4.98-1.47,11.54-15.82,23.67,6.25-1.48,48.76-10.7,48.76-10.7Z"/>
      <path class="infos-3" d="M59.2,100.9c6.5,1.83,13.49.92,19.24-2.61,3.87-2.38,7.44-5.33,7.85-8.32.54-3.95-6.68-9.26-11.04-3.01.9-5.26-7.71-8.51-11.1-7.36-5.71,1.94-4.57,5.75-4.57,5.75,0,0-2.05-4.92-7.74-2.2-4.25,2.03-3.21,9.32-17.59,11.58,2.41-.04,15.77,3.59,24.94,6.17Z"/>
    </g>
  </g>
</svg>