<?xml version="1.0" encoding="UTF-8"?>
<svg id="Calque_2" xmlns="http://www.w3.org/2000/svg" viewBox="0 0 270.05 799.24">
  <defs>
    <style>
      .cls-1-racines {
        fill: #c12934;
      }
    </style>
  </defs>
  <g id="Calque_11">
    <path class="cls-1-racines" d="M268.07,690.46c-3.1-17.21-17-19.74-23.19-29.81-6.19-10.06-3.1-70.45-19.35-85.16-15.11-13.67-18.14-30.02-18.49-32.26-.03-.17-1.41-19.44-1.41-19.61-.05-6.55,2.9-129.39,2.02-170.38,2.46,3.74,5.74,7.3,9.98,9.35,10.59,5.12,14.42,24.94,15.06,29.55.08.55.14,1.76.69,1.76,0,0,.69,0,.31-1.87-1.05-5.05-3.92-23.5-8.5-28.89-.45-.53-.33-1.32.26-1.69,8.79-5.43,6.45-8.13,16.51-4.36,1.58.59,2.51,1.24,1.35-.57-.4-.62-5.21-2.43-5.94-2.58-4.45-.9-5.1-.52-13.45,3.01-.45.19-.83.51-1.29.33-6.98-2.75-14.48-16.29-16.7-20.54-.07-.14-.18-.26-.29-.35-7.01-18.35-35.47-39.66-77.65-77.55-45.68-41.03-59.61-111.48-73.55-144C43.72,89.85,23.97,29.17,15.41,2.44c-1.11-3.47-6.12-3.16-6.79.42C3.61,29.24-5.78,84.93,4.88,80.78c13.94-5.42,11.61,1.55,48,98.32,33.99,90.41,113.94,159.2,124.31,167.85.72.6,1.16,1.45,1.24,2.38,1.48,17.09,15.56,178.73,19.23,202.93,3.87,25.55,39.11,51.67,35.61,92.13-1.9,22-4.25,31.98-6,36.5-.79,2.05-2.1,3.83.06,4.22,1.81.33,4.54-8.49,5-10.27,1.04-4.03,4.93-1.93,8.68,1.29,5.42,4.65.77,58.84,6.19,68.13,11.01,17.96,11.61,34.19,11.22,41.22-.11,2-2.67,13.75,1.39,13.75,0,0,1.55,0,1.94-13.74.15-5.42-.73-27.14-3.1-30.77-17.81-27.29-5.92-52.42-6.03-67.95-.02-2.69,2.87-4.4,5.22-3.09l1.75.97c5.58,3.1,6.6,26.25,6.03,35.48-.12,2.02-.41,4,1.62,4h.2c1.76,0,1.95-3.55,2.19-5.29.73-5.33.72-15.76-1.55-28.39Z"/>
  </g>
</svg>