<?xml version="1.0" encoding="UTF-8"?>
<svg id="Calque_2" xmlns="http://www.w3.org/2000/svg" viewBox="0 0 196.63 764.77">
  <defs>
    <style>
      .cls-1-racines {
        fill: #c12934;
      }
    </style>
  </defs>
  <g id="Calque_11">
    <path class="cls-1-racines" d="M183.23,2.62c-1.94-4.18-8.16-3.11-8.58,1.48-5.29,57.7-28.37,236.55-51.59,260.55-25.86,26.72-46.12,88.12-51.6,124.88-5.47,36.76-20.28,151.96-34.5,168.63-14.22,16.67-32.82,23.29-36.24,46.26-3.42,22.97,5.96-8.5,16.35-15.18s26.39-19.55,26.39-19.55c0,0,4.75,65.33,6.27,86.64,4.09,57.33-10.49,88.84-20.67,107.29l1.91,1.15s30.56-40.54,23.24-125.38c-7.47-86.56.98-109.05,9.21-140.69,8.24-31.65,18.6-119.85,26.34-134.18,6.85-12.68,9.04-16.71,9.04-16.71,0,0,13.64,26.69,9.41,47.19-3.86,18.72-15.99,92.98-18.07,105.75-.13.78.69,1.37,1.39,1.02l.85-.43c1.16-.59,1.99-1.66,2.27-2.93l8.92-40.7s1.71,9.55,5,16.99c1.11,2.5,1.6,3.47,2.38,3.29.95-.22.46-1.11.2-2.05s-3.37-7.13.21-31.16c2.66-17.83,18.97-64.34,3.05-99.34-8.1-17.81,1.9-34.01,13.68-45.62,15.95-15.72,26.69-35.95,30.62-58,3.1-17.36,17.52-87.77,20.07-104.91,10.84-72.77,17.83-105.3,17.83-105.3l-13.4-28.98Z"/>
  </g>
</svg>