<?xml version="1.0" encoding="UTF-8"?>
<svg id="Calque_2" xmlns="http://www.w3.org/2000/svg" viewBox="0 0 35.89 299.98">
  <defs>
    <style>
      .cls-1-racines {
        fill: #c12934;
      }
    </style>
  </defs>
  <g id="Calque_11">
    <path class="cls-1-racines" d="M35.89,18.66s-6.19,22.45-5.42,37.94-4.65,49.24-7.74,59.85,7.98,16.99,10.06,28.41c1.89,10.38,1.9,33.49,2.13,40.45.03,1.05.1,2.9-.94,2.9h0c-.7,0-1.26-.58-1.24-1.27.23-8.02.72-51.39-15.43-59.11-9.1,22.45-10.06,65.03,0,77.42,9.14,11.25,13.31,71.39,15.7,83.57.71,3.59-2.15,11.14-2.15,11.14-.97.58,1.6-6.98,1.35-10.32-.15-2.06-4.1-16.28-5.49-21.26-.28-.99-.6-1.95-.98-2.9l-2.11-5.37c-.15-.52-.9-.47-.98.06l-3.6,15.08c-.84,3.1-2.52,5.58-2.58,4.32,0,0,1.19-2.16,1.61-4,.54-2.35,4.48-18.39.77-36.26-6.93-33.39-10.45-20.13-10.65-13.94s-2.32,30.58-4.84,30.19c-.71-.11.34-3.4.79-4.7.15-.43.26-.85.36-1.3.84-4.05,4.18-23.84-2.69-57.48-7.74-37.94,11.61-78.97,11.61-78.97,0,0,13.16-24,8.52-70.45S35.89.08,35.89.08v18.58Z"/>
  </g>
</svg>