<?xml version="1.0" encoding="UTF-8"?>
<svg id="Calque_2" xmlns="http://www.w3.org/2000/svg" viewBox="0 0 180 2852.81">
  <defs>
    <style>
      .cls-1-racines {
        fill: #c12934;
      }
    </style>
  </defs>
  <g id="Calque_11">
    <path class="cls-1-racines" d="M0,22.63l10.84,51.43s-3.48,85.16,0,102.19,20.13,62.32,18.19,80.13,11.61,110.71,9.68,144.39,6.19,150.19,2.71,162.97-24.28,71.23-20.27,125.03,1.69,192.39,7.11,236.13,10.06,40.65,10.84,67.35,3.48,109.16,7.74,120.39,7.74,75.1,5.42,87.87,2.71,41.03,9.68,56.13,20.52,58.45,22.06,96,13.94,41.81,13.94,41.81c0,0,3.87-2.71,1.94,16.26s1.73,38.71,8.22,48.77,1.46,35.23,3.39,46.45,3.6,32.13.06,44.13.72,54.19,5.75,66.97,1.94,42.19,1.94,42.19c0,0,1.16,59.23-1.55,66.97s-6.4,84-9.59,90.58-3.62,65.42,12.08,90.97,11.83,81.29,15.32,92.13,8.13,64.26,16.65,88.26-7.35,107.61-5.03,152.13,7.78,46.84,7.57,70.84-7.95,20.13-22.28,126.19c0,0-6.97,57.29-5.42,62.71s8.13,99.87,11.61,136.65,16.09,211.74,16.09,211.74c0,0,.56,5.42,4.43,4.26s.77-144.77-1.94-202.84-12.39-165.29-8.13-183.48,24-133.16,24-147.1-3.1-120.39,3.1-138.97,3.1-156.77,3.1-156.77c0,0,5.03.39-26.32-138.97-17.42-69.68-2.32-130.84,0-146.71s3.87-94.45-3.48-125.81-1.16-18.19,3.1-56.13-3.1-72-3.1-72c0,0-14.71-48.77-12.39-83.61s-.77-82.06-8.52-102.58-12.77-54.97-16.65-63.48,6.19-72.77-6.97-100.65-14.9-179.61-14.9-179.61c0,0-4.84-49.16-2.13-110.32s12-79.35,10.84-104.52,2.11-77.42,9.38-89.42-5.51-281.03-2.02-287.61,11.61-17.42,9.29-61.94-7.27-252.77-7.27-252.77c0,0-3.19-2.32-2.8-31.35S0,6.32,0,6.32v16.31Z"/>
  </g>
</svg>