<?xml version="1.0" encoding="UTF-8"?>
<svg id="Calque_2" xmlns="http://www.w3.org/2000/svg" viewBox="0 0 143.77 366.97">
  <defs>
    <style>
      .cls-1-racines {
        fill: #c12934;
      }
    </style>
  </defs>
  <g id="Calque_11">
    <path class="cls-1-racines" d="M14.19,0s27.65,20.65,29.2,66.58-4.39,59.35,42.71,82.58,30.58,139.35,32.13,145.03,18.58,14.45,22.19,31.48l3.32,15.67c.15.7-.39,1.37-1.11,1.37h-2.61c-.34,0-.61-.28-.6-.62.15-3.13.28-17.29-9.33-24.15-10.84-7.74-18.06-17.55-18.06-17.55,0,0-14.97,7.23-14.45,19.61s6.19,46.97,6.19,46.97h-4.18c-.28,0-.52-.17-.59-.44-1.62-5.62-17.66-63.55,7.87-73.37,3.61-26.32,9.29-72.77-8.77-104.26s-43.35-30.97-49.03-41.81c13.42,23.74-.52,33.03,8.77,45.42s14.45,19.61,13.94,33.55c-.41,11.18-3.15,24.68-4.22,29.59-.23,1.06-1.26,1.73-2.32,1.52h0c-1.73-.35-2.81-2.08-2.36-3.79,2.07-7.77,6.4-28.07-1.42-39.19-9.81-13.94-14.45-13.42-13.42-40.26s-6.19-6.71-11.87-48-.74-89.31-19.21-96.53S.03,24.77.03,24.77L14.19,0Z"/>
  </g>
</svg>