<?xml version="1.0" encoding="UTF-8"?>
<svg id="Calque_2" xmlns="http://www.w3.org/2000/svg" viewBox="0 0 46.11 154.24">
  <defs>
    <style>
      .cls-1 {
        fill: #c12934;
      }
    </style>
  </defs>
  <g id="Calque_11">
    <path class="cls-1" d="M10.37.07c.68-.23,1.41.19,1.54.89,1.46,7.97,9.19,48.95,14.31,51.75,5.68,3.1,23.5,21.69,19.23,19.32-.41-.23.69.38-7.22-6.1-3.75-3.07-8.5-5.07-8.61-5.15-5.23-3.76-8.11-3.42-6.76,2.65.9,4.01,2.73,17.14,3.1,23.87,1.13,20.74-2.32,16.77,2.84,43.61,3.76,19.54,4.88,21.64,4.96,22.87.07.99-.54.28-1.07-.56-2.49-3.94-7.87-15.75-9.06-45.28-1.55-38.71-12.37-72.64-17.02-78.9C2.58,23.6.49,8.53,0,4.61c-.07-.55.26-1.07.78-1.25L10.37.07Z"/>
  </g>
</svg>