<?xml version="1.0" encoding="UTF-8"?>
<svg id="Calque_2" xmlns="http://www.w3.org/2000/svg" viewBox="0 0 226.96 663.97">
  <defs>
    <style>
      .cls-1-racines {
        fill: #c12934;
      }
    </style>
  </defs>
  <g id="Calque_11">
    <path class="cls-1-racines" d="M.03,33.31c-.08.23,0,.49.2.62,4.21,2.87,46.13,31.86,45.49,49.53-.45,12.45-11.12,39.4,5.61,62.17s15.08,21.79,12.61,38.77c-1.33,9.17-9.29,47.02,7.99,76.02,15.84,26.59,5.77,75.93,3.99,83.94-.03.14-.03.43,0,.76.07.73.97,1.03,1.45.48l.48-1.35c.6-2.14,1.59-5,1.99-6.96l4.13-20.96c0-.05.02-.09.04-.14.4-.96,5.28-11.42,10.77,25.85,2.96,20.09,4.14,14.74,4.58,9.66.23-2.65.05-5.32-.51-7.92-3.24-15.05-16.22-73.67-25.85-94.29-7.72-16.52-6.28-48.11-2.52-63.98,7.85-33.12-11.52-40.43-18.22-59.03-3.3-9.17,2.63-24.77,4.29-28.82.17-.41.72-.44.93-.05,4.25,7.73,33.12,61.59,29.89,90.96-3.48,31.7,15.73,31.09,18.14,100.15,2.12,60.84,24.11,103.96,36.55,135.77,2.94,7.53,4.16,15.62,3.63,23.69-5.64,85.99,6.25,84.34,5.79,90.82s-20.38,7.87,40.98,117.32c1.03,1.84,2.35,3.5,3.91,4.92.86.79,1.67,1.56,2.43,2.31,1.1,1.1,2.9-.16,2.24-1.57l-24.59-52.69c-1.18-2.54.84-5.4,3.62-5.13,6.04.6,15.7,3.62,24.23,15.52,5.66,7.89,13.42,18.19,16.81,22.65,1.1,1.45,2.61,2.51,4.34,3.06h0c1.12.35,2-.97,1.24-1.86-5.06-5.94-16.04-19.25-22.15-29.87-8.11-14.12-30.59-13.1-36.72-24.37-22.6-41.5-8.19-44.68-6.55-44.9.09-.01.18,0,.27.04,1.79.77,22.79,9.95,27.3,18.88l7.04,12.43s.02.03.02.04c.98,1.5,5.76,6.2,5.42.87,0-.09-.04-.19-.09-.27l-11.16-17.1c-1.63-2.5-3.8-4.59-6.36-6.13-8.48-5.1-28.4-17.89-31.74-27.42-4.26-12.16,5.04-82.79-1.12-95.97-40.01-85.66-34.4-193-42.82-209.83-9.03-17.49-7.38-35.19-10.45-67.77C94.49,119.33,20.38,10.9,13.04.23c-.25-.36-.79-.28-.94.13L.03,33.31Z"/>
  </g>
</svg>