<?xml version="1.0" encoding="UTF-8"?>
<svg id="Calque_2" xmlns="http://www.w3.org/2000/svg" viewBox="0 0 137.06 854.57">
  <defs>
    <style>
      .cls-1-racines {
        fill: #c12934;
      }
    </style>
  </defs>
  <g id="Calque_11">
    <path class="cls-1-racines" d="M120.88,1.2c-.37-1.56-2.56-1.62-3.03-.09-8.93,29.24-50.32,167.65-45.28,206.06,5.64,43.02,10.72,84.4-7.5,135.77-18.22,51.37-33,56.32-41.19,70.01-5.29,8.85-12.85,31.39-16.6,48.5-.43,1.99,2.5,2.71,3.05.75,5.25-19.02,14.35-45.65,24.75-48.66.99-.29,1.97.5,1.97,1.53-.07,23.53,9.51,102.47-8.81,136.54-7.67,14.27-12.94,33.77-14.83,45.04-1.18,7.07-2.18,10.2-13.12,30.93-.54,1.02-.42,2.19,1.22.61,0,0,14.13-18.33,15.63-35.81,1.6-18.65,10.58-28.13,15.77-38.97,16.32-34.04,10.21-72.09,11.38-87.3.13-1.7,2.5-2,3.05-.38,2.48,7.33,5.15,19.33,10.46,27.88,8.12,13.07,4.08,32.97,2.33,39.43-2.04,7.53-.5,6.97-.5,6.97,2.57-.22,3.63-8.69,3.77-9.34,1.37-6.33,5.54-30.77,2.68-38.91-3.63-10.29-21.23-28.13-17.01-63.5,1.09-7.67,1.71-34.16,7.72-43.48,4.92-7.62,19.69-58.91,24.89-77.27.45-1.6,2.76-1.49,3.05.15,4.29,24.34,17.91,109.74,8.29,163.57-11.31,63.3-58.14,210.7-60.01,235.46-1.87,24.76-30.95,34.14-22.29,62.72,13.85,45.75-4.1,73.58-7.41,80.9-1.81,4-.02,4.25-.02,4.25,1.32.19,4.72-7.61,5.55-9.77,3.9-10.06,15.12-34.22,11.69-49.95-4.03-18.48-9.82-40.06,10.67-65.53.96-1.2,2.89-.47,2.8,1.06-1.65,26.59,3.7,57.11,3.54,76.06-.04,5.23.27,14.86,3.86,19.92h0c.83-.11,1.42-.85,1.35-1.68-.94-12.07-6.59-95.64,12.08-161.03,20.17-70.64,55.15-180.63,54.58-217.46-.58-36.83-12.44-125.3-16.24-164.16s5.98-96.89,33.32-124.3c24.01-24.07.47-130.9-5.61-156.53Z"/>
  </g>
</svg>