<?xml version="1.0" encoding="UTF-8"?>
<svg id="Calque_2" xmlns="http://www.w3.org/2000/svg" viewBox="0 0 248.79 266.22">
  <defs>
    <style>
      .soft_skills-1 {
        fill: #f3c14d;
      }

      .soft_skills-2 {
        fill: #eddeeb;
      }

      .soft_skills-3 {
        fill: #237ab5;
      }

      .soft_skills-4 {
        fill: #182240;
      }

      .soft_skills-5 {
        fill: #c12934;
      }
    </style>
  </defs>
  <g id="armoir">
    <g>
      <path class="soft_skills-4" d="M65.34,128.07s-43.6,5.19,2.62,19.32c46.22,14.13,128.7,6.07,132.45-7.03,1.77-6.21.98-6.98-6.3-16.43-9.38-12.17-128.77,4.14-128.77,4.14Z"/>
      <path class="soft_skills-2" d="M221.67,227.84s17.98-30-11.72-85.53c-18.69,19.98-132.27,20.25-170.38.93,0,0-28.28,57.34-11.18,84.6,17.09,27.27,141.9,49.82,193.29,0Z"/>
      <path class="soft_skills-5" d="M157.17,265.08s44.57-3.15,64.5-37.23c-28.84,18.88-63.97,17.3-71.32,15.73-7.34-1.57-13.18,2.51-24.68-.06-11.5-2.57-17.29,5.3-32.49,2.94-15.2-2.36-26.95-8.96-41-7.76-14.05,1.2-23.8-10.86-23.8-10.86,0,0,15,46.15,128.79,37.23Z"/>
      <path class="soft_skills-3" d="M54.31,130.36s-32.54,11.01-2.12,20.09c33.73,10.08,128.32,13.91,155.33-4.94,7.72-5.39-6.29-9.44-6.29-9.44,0,0,1.55,10.92-32.52,14.37-34.07,3.45-136.03,1.55-114.39-20.09Z"/>
      <path class="soft_skills-1" d="M215.82,132.54l-7.5-3.79s22.14-13.31,27.31-19.11c5.17-5.81-3.97,3.19-8.58,0-4.61-3.19-26.77,8.88-26.77,8.88,0,0,15.87-9.96,15.35-14.16,8.39,0,35.13-19.4,33.04-27.27-8.91,3.15-24.3,2.33-37.06,11.13l-.17-2.74s12.06-7.87,20.45-20.45h-16.07l5.85-6.8s-9.15.76-18.6,5.36c8.38-13.24,14.9-30.63,14.9-30.63l-25.05,10.47s-2.27-14.26,0-16.26c-6.12,4.83-10.92.99-15.08,5.79,2.66-9.88-1.01-14.21,2.66-23.06-9.44,13.7-10.67,1.15-40.73,22.11-.17-13.13-19.05-19.42-19.05-32.01,0,0-2.62,9.44-14.16,14.16-5.24,2.62-4.28,9.17-4.28,9.17,0,0-.14-7.25-13.92-13.98-5.39-2.53-5.36-7.52-5.36-7.52,0,0,3.63,2.88-3.71,10.23-7.34,7.34-5.25,17.79-5.25,17.79,0,0-8.19-3.12-13.53-6.52-5.34-3.4-5.36-6.72-5.36-6.72l2.14,21.46s-11.38-.28-18.81-6.06l-.09,6.27-10.01-14.57s-1.86,16.77,10.11,36.12c-7.44-10.01-1.45-3.33-10.21-7.46-8.76-4.13-16.1-9.9-16.1-9.9l10.56,23.8s-11.61,1.9-13.19-4.39c6.82,13.11,1.05,14.68,4.72,17.83-.52,4.2,5.88,19.87,9.23,21.99-8.18-5.74-11.27,1.03-16.54-.78-5.27-1.81-6.96-1.71-6.96-1.71,0,0,15.22,24.42,53.55,26.32,10.54,16.58,38.33,21.3,52.49,11.34,14.16-9.96,10.38-9.76,10.38-9.76l7.97-3.19s6.82,16.62,22.02,17.14c15.21.52,20.98-5.24,20.98-5.24,0,0,9.96,2.62,28.84-1.05,18.88,4.2,19.59-2.22,19.59-2.22Z"/>
      <path class="soft_skills-3" d="M117.32,127.27s-2.98,7.49-25.74,4.61-27.31-4.61-27.31-4.61c0,0,28.14-1.95,32.86-8.76,8.39,6.82,20.19,8.76,20.19,8.76Z"/>
      <path class="soft_skills-3" d="M18.77,99.48c9.19,2,19.57,15.88,35.85,19.03,7.73,1.49,17.69,1.57,26.02,1.24,1.82-.07,2.2,2.52.44,2.99l-7.49,1.97c-.15.04-.31.06-.47.05l-31.76-1.78c-.09,0-.18-.02-.27-.04-2.16-.51-29.78-7.25-37.96-20.51-.72-1.16.29-2.62,1.62-2.31.01,0,.02,0,.03,0,1.49.35,3.02,1.24,4.47,1.1,2.83-.46,3.53-1.05,5.3-1.73,1.11-.43,3.2-.2,4.2,0Z"/>
      <path class="soft_skills-3" d="M90.79,109.64v-6.96s-18.25-14.58-33.49-9.33c6.79,16.26,33.49,16.29,33.49,16.29Z"/>
      <path class="soft_skills-3" d="M180.5,68.69s5.77-3.67,3.67-17.83c13.11-14.68,31.65-14.81,31.65-14.81,0,0-22.73,28.97-35.32,32.64Z"/>
      <path class="soft_skills-3" d="M162.68,55.06s16.09-17.64,15.12-38.45c0,0-39.25,11.18-47.64,32.68,3.67,3.15,3.19,5.77,3.19,5.77,0,0,11.46-7.3,20.65-9.15,9.2-1.86,5.05-7.84,5.05-7.84,0,0-1.1,2.31,4.14,5.98,5.24,3.67-.52,11.01-.52,11.01Z"/>
      <path class="soft_skills-3" d="M111.29,28.84s4.2,17.57,0,22.42c3.15,7.99,4.37.51,14.77,11.07,3.06-5.7,4.11-5.18,4.11-5.18,0,0-5.24-9.96-18.88-28.31Z"/>
      <path class="soft_skills-2" d="M131.21,100.92s5.25-1.29,15.74-16.49c1.57-2.1,1.57.52,3.67-1.57,2.1-2.1,2.1-6.29,15.73-8.91s18.88-1.05,19.4-3.67.36-4.33.36-4.33c0,0-1.41,3.28-10.85,4.33-9.44,1.05-18.35,2.62-25.17,11.01-2.1,3.15-.98-1.47-4.42,2.15-3.44,3.62-9.75,14.58-14.46,17.49Z"/>
      <path class="soft_skills-2" d="M91.36,103.83s2.1-4.52,5.77-4.62c3.67-.1,11.54,3.15,14.16,2.31,2.62-.84,8.91-1.41,13.11.98,4.2,2.38,8.39,2.91,9.96,4.48,1.57,1.57,3.67,4.2,3.67,4.2,0,0-4.2,7.34-8.39,8.91,8.39-3.15,9.96-8.91,9.96-8.91,0,0-2.1-4.72-6.29-6.29s-9.96-5.57-12.59-5.67c-2.62-.1-9.96-1.15-11.01-3.25-2.1,1.57,0,1.57-14.68,1.57-3.67,1.57-3.67,6.29-3.67,6.29Z"/>
      <path class="soft_skills-2" d="M92.93,73.41s1.05-.36,0-3.59c-1.05-3.23-5.24-12.14-4.72-21.06,0,0-1.05,10.49,1.05,16.26-6.29-9.96-5.24-17.3-3.67-20.98.52,4.2,1.57,4.72,1.57,4.72v-20.98c0-4.72-.52-8.39-.52-8.39l-1.05-9.96s16.26,6.82,19.4,20.98c1.57-.52,1.04-1.57,1.04-1.57,0,0-6.51-16.96-17.67-19.49-3.82-2.01-4.64-6.35-4.64-6.35,0,0,.5,4.52-7.73,13.61-4.04,4.89-1.95,13.24-1.95,13.24,0,0,.26,2.66-3.53-1.01-3.8-3.67-8.01-1.9-10.63-5.93s-4.19-7.18-4.19-7.18c0,0,11.2,49.29,21.59,57.68,3.58,1.57.89-2.39.89-2.39,0,0-6.76-8.62-7.28-12.29,4.72,7.34,10,12.29,10,12.29,0,0,5.21-5.48,8.88-2.33,3.67,3.15,3.14,4.72,3.14,4.72Z"/>
      <path class="soft_skills-2" d="M132.28,55.06h1.07s-6.33-18.88-23.11-29.89c-2.62,7.34-5.73,3.41-11.52,10.88,3.65,4.85,4.18,16.91,5.23,17.44,1.05.52,2.62-.52,3.67-5.24l1.05,3.15s3.84-11.54,1.66-22.55c-.61-1.57-.08-3.15,3.59,1.05s7.9,5.77,18.37,25.17Z"/>
      <path class="soft_skills-2" d="M158.67,44.83s3.4-1.91,4.49.75.15,17.56-8.03,28.2c-4.51,6.45-6.23,8.66-6.23,8.66,0,0,8.92-23.19,9.78-37.61Z"/>
      <path class="soft_skills-2" d="M184.7,72.89s-1.57,6.82-7.87,13.63c-6.29,6.82-22.83,23.11-22.83,23.11,0,0,12-2.99,19.51-10.43,7.51-7.44,18.53-15.83,18-23.17s-5.38-5.01-5.38-5.01l-1.43,1.86Z"/>
      <path class="soft_skills-2" d="M187.85,69.74l28.43-32.54s-14.27,29.4-23.71,38.84c0-5.24-4.72-6.29-4.72-6.29Z"/>
      <path class="soft_skills-2" d="M191.53,77.86s14.93-11.01,26.07-11.92c11.14-.91,13.32-.15,16.42-2.63-6.86,5.39-10.53,14.3-24.16,17.45.52-1.57.34-3.15,1.75-4.72-3.84,4.72-24.02,11.54-28.61,14.16,6.94-5.25,8.53-12.34,8.53-12.34Z"/>
      <path class="soft_skills-2" d="M92.93,69.83s-3.05-10.6,7.39-13.21c5.19-1.56,7.29-3.13,7.29-3.13,0,0,2.63,2.15,9.7,5.27,7.08,3.12,13.36,7.78,13.89,12.27s-1.05,8.26,0,12.4,3.15,7.29,0,14.11c0,0,3.67-4.72,3.67-13.11,0-3.67-2.54-1.57-1.53-8.39,1.01-6.82.49-6.5-8.95-15.31-9.96-7.24-8.62-.59-16.37-11.25-1.98,6.64-10.9,2.45-14.04,8.21-3.15,5.77-1.05,12.14-1.05,12.14Z"/>
      <path class="soft_skills-2" d="M94.79,95.96s-3.96,1.05-6.05-7.87c0-2.62-10.01-4.67-10.01-4.67,0,0-.81-9.02-18.21-12.4-10.06-2.33-12.85-8.7-12.85-8.7,0,0,2.65,4.51-.95,5.18-3.6.66-6.58.35-3.51,6.28.97-2.99-1.13-5.61,4.11-4.56,5.24,1.05,15.35,3.15,21.05,6.82s4.65,7.87,11.46,9.96c6.82,2.1,5.24-.52,7.34,3.15s3.72,7.34,7.63,6.82Z"/>
      <path class="soft_skills-2" d="M177.84,120.08s29.41-8.39,35.7-15.21c-7.34,0-20.98,5.77-20.98,5.77l-14.72,9.44Z"/>
      <path class="soft_skills-2" d="M204.58,99.21s12.41-7,22.49-9.05c10.08-2.06,21.73-12.12,21.73-12.12,0,0-3.26,3.24-6.41,2.72-3.15-.52-23.83-1.13-32.63,9.4-3.03,5.81-5.18,9.05-5.18,9.05Z"/>
      <path class="soft_skills-2" d="M195.09,109.64c18.78-17.79,14.78-28.88,14.78-28.88l-1.35,2.67c-1.88,15.78-15.95,27.22-15.95,27.22"/>
      <path class="soft_skills-2" d="M235.1,108.02s-27.61,8.39-34.81,10.49-9.3,7.87-15.59,8.39-6.86,1.12-6.86,1.12c0,0,6.09-3.74,5.16-5.05s-2.5-2.26-2.5-2.26c0,0,25.54-3.77,35.32-10.06,5.58-2.62,8.21-2.62,12.4-2.1,4.2.52,6.88-.52,6.88-.52Z"/>
      <path class="soft_skills-2" d="M134.88,126.95s6.69-3.26,27.21-2.18c10.55.03,15.75-4.69,15.75-4.69,0,0-10.85,3.72-18.25,3.43-7.4-.29-22.09-1.76-24.71,3.43Z"/>
      <path class="soft_skills-3" d="M94.79,115.79l-4-6.16s-23.02-1.4-28.4-8.72c-4.85,4.22-25.86-11.41-32.4-17.49-3.65-2.15-10.98,0-10.98,0,0,0,28.41,30.7,64.8,32.37,7.55.09,10.98,0,10.98,0Z"/>
      <path class="soft_skills-3" d="M34.08,53.97s-2.61,1.61-5.96,1.09,11.42,22.84,17.41,27.41l5.99,4.58s-7.5-9.52-8.99-14.72c-1.5-5.2-.07-3.91,4.2-4.82,4.27-.91-12.63-13.53-12.63-13.53Z"/>
      <path class="soft_skills-3" d="M51.51,41.09s6.44,26.74,16.85,32.42c-8.46-14.25-9.51-30.5-9.51-30.5l-7.34-1.91Z"/>
      <path class="soft_skills-3" d="M118.35,4.76s-2.17,8.35,7.71,14.9c9.88,6.55,8.83,15,8.83,15l2.62-1.62s3.15-11.92-13.11-22.48c-6.82-4.27-4.98-7.56-4.98-7.56l-1.06,1.76Z"/>
      <path class="soft_skills-2" d="M18.07,66.52s-10.05,2.17.94,9.51c11,7.34,12.32.72,12.32.72,0,0-6.33-5.44-7.5-8.06s-5.76-2.17-5.76-2.17Z"/>
      <polygon class="soft_skills-2" points="33.47 79.5 33.47 84.73 38.49 83.43 33.47 79.5"/>
      <path class="soft_skills-3" d="M126.06,124.77s9.35,12.09,16.69,12.62c7.34.52,11.25,2.86,11.25,2.86,0,0-11.35,4.75-21.79-5.35-6.25-4.33-6.16-10.13-6.16-10.13Z"/>
      <path class="soft_skills-3" d="M129.64,120.08s3.64,5.24,8.11,2.88c4.47-2.36,2.28-2.88,2.28-2.88l-5.15-2.06-5.24,2.06Z"/>
      <path class="soft_skills-2" d="M191.78,44.17s.61-3.37.17-13.54c-5.68,2.41-9.44-.11-14.11,4.03,2.66-8.44.03-18.34,1.87-22.57-4.45,3.64.37,11.43-8.07,33.49s-15.28,28.2-15.28,28.2c0,0,13.96-13.25,20.1-35.39,2.47-9.55,7.19-7.49,11.39-8.79s7.84-4.44,7.84-4.44c0,0-2.6,1.57-1.55,5.77,1.05,4.2-.07,12-.07,12l-2.28,1.23Z"/>
      <path class="soft_skills-3" d="M55.7,94.1l-4.2-7.06s-18.66-11.64-23.88-25.88c-2.08-3.75-8.62-3.87-8.62-3.87,0,0,.22,12.71,23.83,29.75,8.4,4.98,12.86,7.06,12.86,7.06Z"/>
      <path class="soft_skills-3" d="M19.01,94.1s5.47-7.25,22.92,9.1c9.58,7.44,11.92,4.29,19.93,9.27,8.01,4.98,9.37,0,9.37,0l25.9,3.36v2.67s-34.61,7.2-45.62,2.29c-11.01-4.91-33.53-19.64-32.5-26.7Z"/>
      <polygon class="soft_skills-3" points="73.37 124.77 79.53 128.02 98.72 120.8 97.13 115.84 73.37 124.77"/>
      <path class="soft_skills-3" d="M139.6,126.95s20.93-.43,28.56,1.07,8.68,1.08,11.3-1.07c2.62-2.15-4.82-3.26-12.64-2.18-7.82,1.08-23.02-1.44-27.22,2.18Z"/>
      <path class="soft_skills-3" d="M235.1,108.02s-28.82,26.29-50.1,28.35c-21.28,2.06-17.61-.56-17.61-.56,0,0,6.78-2.79,8.63-6.9,1.86-3.58,3.68-.34,10.11-1.96,6.43-1.62,5.41-5.22,16.93-8.93,11.52-3.71,32.04-10,32.04-10Z"/>
      <path class="soft_skills-3" d="M162.78,100.92s17.44-17.96,19.16-21.42-7,9.13-19.16,9.13c-12.16,0-16.33,1.57-18.18,7.08-1.85,5.51,16.18,1.26,18.18,5.22Z"/>
      <path class="soft_skills-3" d="M206.47,82.45s-18.27,11.16-22.51,15.09c-4.24,3.93,8.61,9.97,8.61,9.97,0,0,14.44-6.85,13.91-25.06Z"/>
    </g>
  </g>
</svg>