<?xml version="1.0" encoding="UTF-8"?>
<svg id="Calque_2" xmlns="http://www.w3.org/2000/svg" viewBox="0 0 231.34 259.12">
  <defs>
    <style>
      .stage-1 {
        fill: #f3c14d;
      }

      .stage-2 {
        fill: #eddeeb;
      }

      .stage-3 {
        fill: #237ab5;
      }

      .stage-4 {
        fill: #182240;
      }

      .stage-5 {
        fill: #c12934;
      }
    </style>
  </defs>
  <g id="armoir">
    <g>
      <path class="stage-1" d="M223.82,12.79c-1.27-9.79-12.54-16.12-19.45-10.94-1.84,1.38-12.59,17.27-12.59,17.27,0,0-11.59-6.33-75.84-6.33-88.43,0-84.84,6.33-84.84,6.33,8.06,10.36,19,37.42,23.03,45.48,4.03,8.06,18.42,21.87,18.42,21.87,0,0,75.99-1.15,82.89-1.15,4.61-7.48,22.45-23.6,34.54-25.33,12.09-1.73,9.79-4.61,9.79-4.61,27.63-14.39,25.33-32.81,24.05-42.6ZM197.46,53.66c-6.91-4.03-9.79,1.73-9.79,1.73l-16.69,7.48,6.33-14.39s9.21-20.72,20.72-20.72c1.15-9.79,4.61-17.85,6.33-19,1.73-1.15,8.63-8.63,15.54,6.33,6.91,14.97-14.97,33.96-22.45,38.57Z"/>
      <path class="stage-3" d="M177.31,15.67s-14.97,23.78-15.54,40.21c0,9.63-14.09,29.45-14.09,29.45h-4.12s14.17-16.99,14.17-28.88,13.82-39.64,19.57-40.77Z"/>
      <path class="stage-3" d="M97.42,86.1c-1.85-5.96-9.33-19.2-9.91-30.14s-4.11-34.57-11.55-42.61h-3.99s11.06,15.27,12.73,42.18c-.06,18.85,10.08,30.94,10.08,30.94l2.65-.37Z"/>
      <path class="stage-3" d="M77.15,84.17s-6.91-7.48-10.36-14.97-8.46-6.33-8.46-6.33c0,0,10.77,20.72,18.83,21.3Z"/>
      <path class="stage-2" d="M50.73,57.28s31.51-.99,38.75,0c7.24.99,8.43-1.3,16.76-.44s43.5.69,43.5.69l22.5,2.48,1.48-3.37s-17.13-1.25-20.59-1.83-43.09.58-45.72,0-14.88.82-19.98-.17-38.28,0-38.28,0l1.59,2.63Z"/>
      <path class="stage-3" d="M56.43,64.02s7.93-13.46-7.03-49.15c-19.7,1.74-18.3,4.25-18.3,4.25,0,0,7.65,11.91,13.18,24.6s10.27,21.91,10.77,22.53c.34.42,1.38-2.23,1.38-2.23Z"/>
      <path class="stage-5" d="M51.24,46.18s-6.19-23.6-11.44-28.21l-2.95-.58s10.36,12.09,14.39,28.78Z"/>
      <path class="stage-5" d="M33.67,17.35s14.68,17.89,16.13,28.82c-4.89-9.21-16.4-28.21-18.7-27.06-.29-.88,2.57-1.77,2.57-1.77Z"/>
      <path class="stage-3" d="M181.62,40.68s18.15-27.31,19.3-31.91c1.15-4.61-16.14,20.65-19.3,31.91Z"/>
      <path class="stage-3" d="M202.59,3.88s6.39-.3,6.39-2.02-4.71-2.86-6.39,2.02Z"/>
      <path class="stage-5" d="M197.46,53.66s4.4,1.76,1.47,3.77c-2.44,1.68-4.35-1.47-1.47-3.77Z"/>
      <path class="stage-3" d="M167.77,72.24s16.43-16.84,23.17-16.41c6.74.42,5.65,2.31,5.65,2.31,0,0-.23.44-6.96,1.88-10.05,2.16-21.87,12.23-21.87,12.23Z"/>
      <path class="stage-4" d="M71.97,204.16s38.86-18.81,46.92-20.53v3.78l3.52,1.4-3.53,1.26,24.69,44.96-46.15,24.1-24.01-42.11-3.45-2.88-3.45-3.45,5.47-3.29v-3.23Z"/>
      <polygon class="stage-2" points="71.97 210.33 114.85 188.8 139.61 232.55 97.42 256.19 71.97 210.33"/>
      <path class="stage-1" d="M54.7,122.89h119.02s-7.04-4.52,0-11.18c10.5-2.06,31.5-14.13,40.86-22.49,6.48-2.02,22.86-2.6,14.38-4.9-8.48-2.3-183.79,5.18-227.96,1.15-3.87,0,4.19,3.45,11.67,4.61,7.48,1.15,19,15.54,41.45,21.3,9.21,9.21,2.88,10.36.58,11.51Z"/>
      <path class="stage-3" d="M179.33,107.18s-75.89,2.77-99.22,0c-3.36-.4-5.63-.91-6.42-1.56-6.33-5.18-26.48-5.76-27.63-8.06-1.15-2.3,0-5.76,27.06-5.18,27.06.58,119.34-.91,122.99-2.18,3.65-1.27-173.9-5.29-173.9,1.82,0,3.98,22,25.1,72.43,24.25s83.26-3.49,84.69-9.08Z"/>
      <path class="stage-2" d="M171.81,113.93s-87.39.37-89.88,2.36c-2.49,2,21.73,7.37,88.77,2.38-1.46-1.53,1.1-4.74,1.1-4.74Z"/>
      <path class="stage-2" d="M147.38,105.05c5.18-.58,31.99,1.99,39.6-3.32,7.61-5.31,8.03-9.6,8.03-9.6,0,0-123.04-.89-123.62,2.56-.58,3.45,2.25,14.54,56.39,11.59,10.39-.65,14.42-.65,19.6-1.22Z"/>
      <path class="stage-5" d="M115.67,121.41s-47.56,1.82-47.94-3.53c-.37-5.35,98.06-6.5,98.06-6.5,0,0-103.4,5.17-131.16-18.35-.06-.05-.12-.09-.19-.13-4.5-2.21-7.81-1.49-9.56-.74-.68.29-.75,1.23-.13,1.63,5.15,3.41,24.63,16.09,31.1,17.58,4.03,1.15,2.76.83,1.28,1.94-1.29.97.24,1.08,1.46,3.98.51,1.21.72,2.73-.8,4.08-.59.53-.08,1.53.71,1.54,13.85.06,54.57.26,57.17-1.5Z"/>
      <path class="stage-4" d="M101.24,13.99c-1.83,11.83-3.12,23.75-3.84,35.7-.36,5.95-.57,11.91-.65,17.87s.24,11.49-.68,17.13c-.44,2.7-1.28,5.2-2.2,7.76s-1.26,5.21-.73,8.01,1.46,5.59,2.03,8.42,1.01,5.69,1.33,8.57c1.33,11.84,1.42,23.86,1.91,35.76.56,13.63,1.13,27.25,1.69,40.88.08,1.91,3.06,1.92,2.98,0-.5-12.06-1-24.11-1.5-36.17-.49-11.89-.7-23.84-1.65-35.7-.46-5.76-1.2-11.53-2.57-17.15-.66-2.71-1.82-5.54-1.54-8.38.26-2.66,1.65-5.12,2.35-7.68,1.46-5.34,1.5-10.94,1.52-16.43.01-5.92.13-11.84.4-17.76.62-13.41,1.96-26.78,4-40.04.29-1.87-2.58-2.68-2.87-.79h0Z"/>
    </g>
  </g>
</svg>