<?xml version="1.0" encoding="UTF-8"?>
<svg id="Calque_2" xmlns="http://www.w3.org/2000/svg" viewBox="0 0 310.44 196.75">
  <defs>
    <style>
      .tools-1 {
        stroke: #c12934;
      }

      .tools-1, .tools-2, .tools-3 {
        stroke-miterlimit: 10;
      }

      .tools-1, .tools-4 {
        fill: #c12934;
      }

      .tools-2 {
        stroke-width: 2px;
      }

      .tools-2, .tools-3 {
        fill: none;
        stroke: #eddeeb;
      }

      .tools-5 {
        fill: #f3c14d;
      }

      .tools-6 {
        fill: #eddeeb;
      }

      .tools-7 {
        fill: #237ab5;
      }

      .tools-8 {
        fill: #182240;
      }
    </style>
  </defs>
  <g id="armoir">
    <g>
      <polygon class="tools-5" points="301.9 196.75 6.54 196.75 3.27 93.2 307.47 93.2 301.9 196.75"/>
      <polygon class="tools-3" points="19.81 130.34 21.75 183.88 285.86 183.88 289.48 130.34 19.81 130.34"/>
      <polygon class="tools-7" points="285.86 168.32 21.75 168.64 21.12 157.25 287.06 157.23 285.86 168.32"/>
      <rect class="tools-7" x="21.12" y="130.92" width="266.9" height="12.1"/>
      <polygon class="tools-5" points="3.27 93.2 307.47 93.2 310.44 52.98 0 52.98 3.27 93.2"/>
      <polygon class="tools-7" points="3.27 93.2 307.47 93.2 307.47 92.54 3.16 91.78 3.27 93.2"/>
      <polygon class="tools-6" points="3.27 91.77 307.47 92.54 307.53 92.01 3.04 88.93 3.27 91.77"/>
      <polygon class="tools-6" points="30.73 35.9 0 52.98 310.44 52.98 277.49 35.9 30.73 35.9"/>
      <path class="tools-7" d="M161.5,109.92h-11.83c-2.37,0-4.45-1.57-5.1-3.84l-2.15-7.52c-.51-1.8.84-3.59,2.7-3.59h19.1c3.01,0,5.04,3.08,3.85,5.84l-2.85,6.65c-.64,1.49-2.11,2.46-3.73,2.46Z"/>
      <rect class="tools-7" x="141.4" y="77.54" width="29.18" height="11.39"/>
      <rect class="tools-2" x="148.52" y="83.23" width="15.3" height="24.91"/>
      <rect class="tools-1" x="151.36" y="103.16" width="9.25" height="14.95"/>
      <path class="tools-4" d="M209.34,44.44h-6.54v-4.24l-3.27-4.3s.15-24.7-16.35-26.23c-15.08,8.43-54.94-.11-54.94-.11,0,0-16.29,1.42-18.11,17.44.32,6.05,0,8.9,0,8.9,0,0-3.35.77-4.36,4.3l-1.01,3.53-4.44.71v-24.96S102.61,1.03,121.12.32s68.05,0,68.05,0c0,0,15.87.15,20.17,16.45.03,12.74,0,27.68,0,27.68Z"/>
      <path class="tools-5" d="M125.93,44.44v-4.79l-4.91-3.76h-10.9s-4.66.71-5.38,7.83c10.68.71,21.19.71,21.19.71Z"/>
      <path class="tools-5" d="M183.72,44.44v-4.27s-1.51-4.27,7.09-4.27,11.83.06,11.99,4.3l.17,4.24h-19.25Z"/>
      <rect class="tools-8" x="21.12" y="128.81" width="266.9" height="2.11"/>
      <rect class="tools-8" x="21.12" y="143.03" width="266.9" height="3.85"/>
      <rect class="tools-4" x="21.12" y="138.57" width="266.9" height="4.44"/>
      <rect class="tools-8" x="21.75" y="155.41" width="265.31" height="1.82"/>
      <polygon class="tools-4" points="21.44 164.52 286.27 164.52 285.86 168.32 21.75 168.64 21.44 164.52"/>
      <rect class="tools-8" x="21.75" y="167.9" width="264.12" height="4.78"/>
      <rect class="tools-6" x="23.08" y="132.15" width="260.95" height="2.12"/>
      <rect class="tools-6" x="23.08" y="158.39" width="260.95" height="2.12"/>
      <polygon class="tools-6" points=".36 57.43 310.11 57.43 310.11 60.31 .6 60.31 .36 57.43"/>
      <polygon class="tools-7" points="310.44 52.98 310.11 57.43 .36 57.43 0 52.98 310.44 52.98"/>
      <path class="tools-7" d="M100.31,44.44s7.45,2.67,11.45,2.67h12.72l1.45-2.67-21.19-.71-4.44.71Z"/>
      <path class="tools-7" d="M209.24,44.44s-7.45,2.67-11.45,2.67c-4,0-12.72,0-12.72,0l-1.45-2.67,21.19-.71,4.44.71Z"/>
    </g>
  </g>
</svg>